<?xml version="1.0" encoding="UTF-8"?>
<!DOCTYPE svg PUBLIC "-//W3C//DTD SVG 1.1//EN" "http://www.w3.org/Graphics/SVG/1.1/DTD/svg11.dtd">
<svg version="1.1" xmlns="http://www.w3.org/2000/svg" xmlns:xlink="http://www.w3.org/1999/xlink" x="0" y="0" width="667.776" height="814.426" viewBox="0, 0, 667.776, 814.426">
  <g id="Layer_1" transform="translate(-0, 0)">
    <path d="M427.13,294.426 L427.13,75 C427.13,33.579 393.463,-0 351.932,-0 C326.008,-0 303.148,13.084 289.628,32.991 C289.432,33.246 289.237,33.502 289.044,33.759 C287.163,36.267 285.463,38.854 283.942,41.504 L15.448,399.461 C10.716,405.628 6.922,412.549 4.278,420.012 C4.124,420.449 3.973,420.886 3.827,421.325 C0.885,430.148 -0.343,439.352 0.082,448.455 C1.021,468.558 10.023,488.167 26.43,502.088 C33.534,508.131 41.78,512.879 50.801,515.963 C58.951,518.752 67.437,520.082 75.879,520 L240.646,520 L240.646,739.426 C240.646,780.847 274.314,814.426 315.844,814.426 C341.768,814.426 364.628,801.342 378.149,781.435 C378.345,781.18 378.539,780.924 378.732,780.667 C380.613,778.159 382.313,775.572 383.834,772.922 L652.33,414.964 C657.233,408.574 661.129,401.374 663.781,393.601 C666.844,384.629 668.127,375.253 667.695,365.982 C666.722,344.513 656.699,325.395 641.341,312.333 C634.27,306.32 626.069,301.59 617.099,298.505 C608.91,295.687 600.38,294.344 591.895,294.426 L427.13,294.426 z" fill="#FFFFFF" id="bolt"/>
  </g>
</svg>
